<svg width="32" height="32" viewBox="0 0 32 32" fill="none" xmlns="http://www.w3.org/2000/svg">
<path d="M0 22.3626V22.1895H1.26397C1.42557 22.1895 1.56986 22.1664 1.69683 22.1202C1.83535 22.0741 1.94501 21.9759 2.02581 21.8259C2.10661 21.6758 2.14701 21.4507 2.14701 21.1506V11.2293C2.14701 10.9177 2.10661 10.6868 2.02581 10.5368C1.94501 10.3867 1.83535 10.2886 1.69683 10.2424C1.56986 10.1962 1.42557 10.1731 1.26397 10.1731H0V10H4.72689L8.31102 19.4365L11.2545 10H15.5139V10.1731H14.7867C14.6251 10.1731 14.475 10.202 14.3365 10.2597C14.198 10.3059 14.0883 10.4098 14.0075 10.5714C13.9383 10.7214 13.9036 10.9638 13.9036 11.2986V21.064C13.9036 21.3873 13.9383 21.6297 14.0075 21.7913C14.0883 21.9529 14.198 22.0625 14.3365 22.1202C14.475 22.1664 14.6251 22.1895 14.7867 22.1895H15.5139V22.3626H9.97322V22.1895H10.1464C10.3888 22.1895 10.5908 22.1664 10.7524 22.1202C10.914 22.0741 11.0352 21.9817 11.116 21.8432C11.1968 21.7047 11.2372 21.4969 11.2372 21.2199V10.6406L7.56649 22.3626H6.73539L2.32016 10.7272V21.064C2.32016 21.3873 2.36633 21.6297 2.45868 21.7913C2.56256 21.9529 2.71262 22.0625 2.90886 22.1202C3.10509 22.1664 3.33595 22.1895 3.60144 22.1895H4.29403V22.3626H0Z" fill="#0F0F0F"/>
<path d="M16.4861 22.3626V22.1895H17.7501C17.9117 22.1895 18.056 22.1664 18.1829 22.1202C18.3214 22.0741 18.4311 21.9759 18.5119 21.8259C18.5927 21.6758 18.6331 21.4507 18.6331 21.1506V11.2293C18.6331 10.9177 18.5927 10.6868 18.5119 10.5368C18.4311 10.3867 18.3214 10.2886 18.1829 10.2424C18.056 10.1962 17.9117 10.1731 17.7501 10.1731H16.4861V10H21.213L24.7971 19.4365L27.7406 10H32V10.1731H31.2728C31.1112 10.1731 30.9611 10.202 30.8226 10.2597C30.6841 10.3059 30.5744 10.4098 30.4936 10.5714C30.4244 10.7214 30.3897 10.9638 30.3897 11.2986V21.064C30.3897 21.3873 30.4244 21.6297 30.4936 21.7913C30.5744 21.9529 30.6841 22.0625 30.8226 22.1202C30.9611 22.1664 31.1112 22.1895 31.2728 22.1895H32V22.3626H26.4593V22.1895H26.6325C26.8749 22.1895 27.0769 22.1664 27.2385 22.1202C27.4001 22.0741 27.5213 21.9817 27.6021 21.8432C27.6829 21.7047 27.7233 21.4969 27.7233 21.2199V10.6406L24.0526 22.3626H23.2215L18.8063 10.7272V21.064C18.8063 21.3873 18.8524 21.6297 18.9448 21.7913C19.0487 21.9529 19.1987 22.0625 19.395 22.1202C19.5912 22.1664 19.822 22.1895 20.0875 22.1895H20.7801V22.3626H16.4861Z" fill="#0F0F0F"/>
</svg>
