<svg width="24" height="24" viewBox="0 0 24 24" fill="none" xmlns="http://www.w3.org/2000/svg">
<path d="M6.5 16.0385C7.37308 16.0385 8.22213 16.1388 9.04713 16.3394C9.87213 16.5401 10.6897 16.8667 11.5 17.3192V7.50772C10.7782 6.99234 9.98268 6.6058 9.11345 6.3481C8.24423 6.09041 7.37308 5.96157 6.5 5.96157C5.9 5.96157 5.37468 5.99746 4.92403 6.06925C4.47339 6.14105 3.97308 6.27438 3.42308 6.46925C3.26923 6.52053 3.16025 6.59425 3.09615 6.6904C3.03205 6.78656 3 6.89234 3 7.00772V16.0231C3 16.2026 3.0641 16.334 3.1923 16.4173C3.32052 16.5007 3.46154 16.5103 3.61538 16.4462C3.98076 16.3231 4.40287 16.2244 4.88173 16.15C5.36057 16.0757 5.9 16.0385 6.5 16.0385ZM12.5 17.3192C13.3103 16.8667 14.1279 16.5401 14.9529 16.3394C15.7779 16.1388 16.6269 16.0385 17.5 16.0385C18.1 16.0385 18.6394 16.0757 19.1183 16.15C19.5971 16.2244 20.0192 16.3231 20.3846 16.4462C20.5385 16.5103 20.6795 16.5007 20.8077 16.4173C20.9359 16.334 21 16.2026 21 16.0231V7.00772C21 6.89234 20.968 6.78977 20.9039 6.70002C20.8398 6.61027 20.7308 6.53335 20.5769 6.46925C20.0269 6.27438 19.5266 6.14105 19.076 6.06925C18.6253 5.99746 18.1 5.96157 17.5 5.96157C16.6269 5.96157 15.7558 6.09041 14.8865 6.3481C14.0173 6.6058 13.2218 6.99234 12.5 7.50772V17.3192ZM12 18.4558C11.8436 18.4558 11.6997 18.4362 11.5683 18.3971C11.4369 18.358 11.3115 18.3077 11.1923 18.2462C10.4654 17.85 9.70833 17.5497 8.92115 17.3452C8.13397 17.1407 7.32692 17.0385 6.5 17.0385C5.97948 17.0385 5.46827 17.0821 4.96635 17.1693C4.46442 17.2564 3.97563 17.3962 3.5 17.5885C3.13718 17.7334 2.79647 17.6898 2.47787 17.4577C2.15929 17.2257 2 16.9052 2 16.4962V6.8308C2 6.58335 2.06506 6.35386 2.19517 6.14232C2.32531 5.93079 2.50768 5.78336 2.7423 5.70002C3.32948 5.44104 3.94038 5.25321 4.575 5.13655C5.20962 5.01988 5.85128 4.96155 6.5 4.96155C7.47948 4.96155 8.43493 5.10257 9.36635 5.38462C10.2977 5.66667 11.1756 6.07693 12 6.6154C12.8244 6.07693 13.7023 5.66667 14.6337 5.38462C15.5651 5.10257 16.5205 4.96155 17.5 4.96155C18.1487 4.96155 18.7904 5.01988 19.425 5.13655C20.0596 5.25321 20.6705 5.44104 21.2577 5.70002C21.4923 5.78336 21.6747 5.93079 21.8048 6.14232C21.9349 6.35386 22 6.58335 22 6.8308V16.4962C22 16.9052 21.8279 17.2193 21.4837 17.4385C21.1394 17.6577 20.7731 17.6949 20.3846 17.55C19.9218 17.3705 19.4491 17.2404 18.9664 17.1596C18.4837 17.0789 17.9949 17.0385 17.5 17.0385C16.6731 17.0385 15.866 17.1407 15.0788 17.3452C14.2917 17.5497 13.5346 17.85 12.8077 18.2462C12.6885 18.3077 12.5631 18.358 12.4317 18.3971C12.3003 18.4362 12.1564 18.4558 12 18.4558ZM13.8846 8.9481C13.8846 8.87501 13.9099 8.80097 13.9606 8.72597C14.0112 8.65097 14.0712 8.59489 14.1404 8.55772C14.6494 8.32694 15.1872 8.15066 15.7538 8.02887C16.3205 7.90707 16.9026 7.84617 17.5 7.84617C17.8205 7.84617 18.124 7.8638 18.4106 7.89905C18.6971 7.93431 18.9923 7.98528 19.2962 8.05195C19.382 8.07247 19.4567 8.11733 19.5202 8.18655C19.5837 8.25578 19.6154 8.34168 19.6154 8.44425C19.6154 8.6122 19.5654 8.734 19.4654 8.80965C19.3654 8.88528 19.2314 8.90259 19.0635 8.86157C18.8173 8.81157 18.5651 8.77727 18.3067 8.75867C18.0484 8.74009 17.7795 8.7308 17.5 8.7308C16.9641 8.7308 16.4397 8.78208 15.9269 8.88465C15.4141 8.98722 14.9276 9.1308 14.4673 9.3154C14.2955 9.3808 14.1555 9.37888 14.0471 9.30965C13.9388 9.24042 13.8846 9.1199 13.8846 8.9481ZM13.8846 14.3712C13.8846 14.2981 13.9099 14.2208 13.9606 14.1394C14.0112 14.058 14.0712 13.9987 14.1404 13.9615C14.6237 13.7308 15.1615 13.5577 15.7538 13.4423C16.3462 13.3269 16.9282 13.2692 17.5 13.2692C17.8205 13.2692 18.124 13.2869 18.4106 13.3221C18.6971 13.3574 18.9923 13.4084 19.2962 13.475C19.382 13.4955 19.4567 13.5404 19.5202 13.6096C19.5837 13.6789 19.6154 13.7648 19.6154 13.8673C19.6154 14.0353 19.5654 14.1571 19.4654 14.2327C19.3654 14.3084 19.2314 14.3257 19.0635 14.2846C18.8173 14.2346 18.5651 14.2003 18.3067 14.1817C18.0484 14.1632 17.7795 14.1539 17.5 14.1539C16.9769 14.1539 16.4622 14.2074 15.9558 14.3144C15.4494 14.4215 14.966 14.5737 14.5058 14.7712C14.334 14.8494 14.1875 14.8484 14.0663 14.7683C13.9452 14.6882 13.8846 14.5558 13.8846 14.3712ZM13.8846 11.6789C13.8846 11.6058 13.9099 11.5317 13.9606 11.4567C14.0112 11.3817 14.0712 11.3257 14.1404 11.2885C14.6494 11.0577 15.1872 10.8814 15.7538 10.7596C16.3205 10.6378 16.9026 10.5769 17.5 10.5769C17.8205 10.5769 18.124 10.5946 18.4106 10.6298C18.6971 10.6651 18.9923 10.7161 19.2962 10.7827C19.382 10.8032 19.4567 10.8481 19.5202 10.9173C19.5837 10.9866 19.6154 11.0725 19.6154 11.175C19.6154 11.343 19.5654 11.4648 19.4654 11.5404C19.3654 11.616 19.2314 11.6334 19.0635 11.5923C18.8173 11.5423 18.5651 11.508 18.3067 11.4894C18.0484 11.4709 17.7795 11.4616 17.5 11.4616C16.9641 11.4616 16.4397 11.5128 15.9269 11.6154C15.4141 11.718 14.9276 11.8616 14.4673 12.0462C14.2955 12.1116 14.1555 12.1096 14.0471 12.0404C13.9388 11.9712 13.8846 11.8507 13.8846 11.6789Z" fill="url(#paint0_linear_41_2)"/>
<defs>
<linearGradient id="paint0_linear_41_2" x1="12" y1="4.96155" x2="12" y2="18.4558" gradientUnits="userSpaceOnUse">
<stop stop-color="#A973D3"/>
<stop offset="1" stop-color="#531683"/>
</linearGradient>
</defs>
</svg>
