<svg width="22" height="40" viewBox="0 0 22 40" fill="none" xmlns="http://www.w3.org/2000/svg">
<path d="M20.826 20.692C20.826 21.4893 20.7307 22.278 20.54 23.058C20.3493 23.838 20.0633 24.5487 19.682 25.19C19.318 25.8313 18.8587 26.3427 18.304 26.724C17.7493 27.088 17.0993 27.27 16.354 27.27C15.7647 27.27 15.2187 27.1227 14.716 26.828C14.2307 26.516 13.8667 26.1173 13.624 25.632H13.442C13.0953 26.0653 12.6533 26.4467 12.116 26.776C11.5787 27.1053 10.9547 27.27 10.244 27.27C8.77067 27.27 7.644 26.8107 6.864 25.892C6.10133 24.956 5.72 23.734 5.72 22.226C5.72 21.0647 5.954 20.042 6.422 19.158C6.89 18.2567 7.566 17.5547 8.45 17.052C9.334 16.532 10.4 16.272 11.648 16.272C12.428 16.272 13.2167 16.35 14.014 16.506C14.8113 16.6447 15.4527 16.8007 15.938 16.974L15.704 22.304C15.6867 22.4773 15.6693 22.6593 15.652 22.85C15.652 23.0233 15.652 23.136 15.652 23.188C15.652 23.8987 15.7213 24.3753 15.86 24.618C16.016 24.8433 16.198 24.956 16.406 24.956C16.7353 24.956 17.0127 24.7653 17.238 24.384C17.4633 23.9853 17.6367 23.4653 17.758 22.824C17.8793 22.1653 17.94 21.446 17.94 20.666C17.94 19.21 17.68 17.9793 17.16 16.974C16.6573 15.9513 15.938 15.1713 15.002 14.634C14.066 14.0967 12.9567 13.828 11.674 13.828C10.426 13.828 9.32533 14.0447 8.372 14.478C7.41867 14.9113 6.62133 15.518 5.98 16.298C5.33867 17.078 4.85333 17.9967 4.524 19.054C4.19467 20.1113 4.03 21.264 4.03 22.512C4.03 24.072 4.28133 25.398 4.784 26.49C5.304 27.5647 6.058 28.3793 7.046 28.934C8.034 29.4887 9.256 29.766 10.712 29.766C11.6307 29.766 12.6273 29.6533 13.702 29.428C14.7767 29.2027 15.7647 28.9253 16.666 28.596V31.04C15.8687 31.3867 14.9673 31.664 13.962 31.872C12.974 32.08 11.9427 32.184 10.868 32.184C8.82267 32.184 7.06333 31.8027 5.59 31.04C4.134 30.2773 3.016 29.1853 2.236 27.764C1.47333 26.3253 1.092 24.6007 1.092 22.59C1.092 21.0127 1.33467 19.548 1.82 18.196C2.32267 16.844 3.03333 15.6653 3.952 14.66C4.87067 13.6373 5.97133 12.8487 7.254 12.294C8.554 11.722 10.01 11.436 11.622 11.436C12.974 11.436 14.2133 11.6527 15.34 12.086C16.4667 12.502 17.4373 13.1173 18.252 13.932C19.084 14.7293 19.7167 15.7 20.15 16.844C20.6007 17.9707 20.826 19.2533 20.826 20.692ZM8.762 22.278C8.762 23.2313 8.92667 23.916 9.256 24.332C9.60267 24.748 10.0447 24.956 10.582 24.956C11.3273 24.956 11.8473 24.644 12.142 24.02C12.454 23.3787 12.6447 22.5467 12.714 21.524L12.844 18.716C12.6707 18.6813 12.4973 18.6553 12.324 18.638C12.1507 18.6033 11.96 18.586 11.752 18.586C11.0413 18.586 10.4607 18.768 10.01 19.132C9.57667 19.4787 9.256 19.938 9.048 20.51C8.85733 21.0647 8.762 21.654 8.762 22.278Z" fill="url(#paint0_linear_47_3)"/>
<defs>
<linearGradient id="paint0_linear_47_3" x1="11" y1="0" x2="11" y2="40" gradientUnits="userSpaceOnUse">
<stop stop-color="#A973D3"/>
<stop offset="1" stop-color="#531683"/>
</linearGradient>
</defs>
</svg>
