<svg width="24" height="24" viewBox="0 0 24 24" fill="none" xmlns="http://www.w3.org/2000/svg">
<path d="M12.0044 20.7C10.8015 20.7 9.6704 20.4718 8.6111 20.0153C7.55178 19.5587 6.63032 18.9392 5.84672 18.1566C5.06314 17.374 4.4428 16.4537 3.9857 15.3957C3.5286 14.3377 3.30005 13.2073 3.30005 12.0044C3.30005 10.8015 3.52831 9.6704 3.98482 8.6111C4.44136 7.55178 5.06092 6.63033 5.84352 5.84675C6.62614 5.06315 7.54643 4.4428 8.6044 3.9857C9.66237 3.5286 10.7928 3.30005 11.9957 3.30005C13.1986 3.30005 14.3297 3.52831 15.389 3.98482C16.4483 4.44136 17.3698 5.06092 18.1533 5.84352C18.9369 6.62614 19.5573 7.54643 20.0144 8.6044C20.4715 9.66237 20.7 10.7928 20.7 11.9957C20.7 13.1986 20.4718 14.3297 20.0153 15.389C19.5587 16.4483 18.9392 17.3698 18.1566 18.1534C17.374 18.937 16.4537 19.5573 15.3957 20.0144C14.3377 20.4715 13.2073 20.7 12.0044 20.7ZM12 20C14.2334 20 16.125 19.225 17.675 17.675C19.225 16.125 20 14.2334 20 12V11.65C20 11.5334 19.9917 11.4167 19.975 11.3C19.9417 11.7334 19.7792 12.0917 19.4875 12.375C19.1959 12.6584 18.8334 12.8 18.4 12.8H15.7C15.26 12.8 14.8834 12.6437 14.57 12.331C14.2567 12.0184 14.1 11.6425 14.1 11.2035V10.4052H10.9V8.80862C10.9 8.36957 11.0567 7.99172 11.37 7.67505C11.6834 7.35838 12.06 7.20005 12.5 7.20005H13.3V6.20005C13.3 5.68338 13.475 5.28755 13.825 5.01255C14.175 4.73755 14.5917 4.60005 15.075 4.60005C14.5917 4.40005 14.0952 4.25005 13.5854 4.15005C13.0756 4.05005 12.5471 4.00005 12 4.00005C9.76672 4.00005 7.87505 4.77505 6.32505 6.32505C4.77505 7.87505 4.00005 9.76672 4.00005 12V12.375C4.00005 12.4917 4.00838 12.6167 4.02505 12.75H8.35005C9.25005 12.75 10.0084 13.0584 10.625 13.675C11.2417 14.2917 11.55 15.0463 11.55 15.9387V16.75H9.15005V19.475C9.58338 19.6417 10.0417 19.7709 10.525 19.8625C11.0084 19.9542 11.5 20 12 20Z" fill="url(#paint0_linear_15_89)"/>
<defs>
<linearGradient id="paint0_linear_15_89" x1="12" y1="3.30005" x2="12" y2="20.7" gradientUnits="userSpaceOnUse">
<stop stop-color="#B78ED7"/>
<stop offset="1" stop-color="#8A59B0"/>
</linearGradient>
</defs>
</svg>
