<svg width="90" height="35" viewBox="0 0 90 35" fill="none" xmlns="http://www.w3.org/2000/svg">
<path d="M0.343994 35V34.52H3.84799C4.29599 34.52 4.69599 34.456 5.04799 34.328C5.43199 34.2 5.73599 33.928 5.95999 33.512C6.18399 33.096 6.29599 32.472 6.29599 31.64V4.13603C6.29599 3.27203 6.18399 2.63203 5.95999 2.21603C5.73599 1.80003 5.43199 1.52803 5.04799 1.40003C4.69599 1.27203 4.29599 1.20803 3.84799 1.20803H0.343994V0.728027H13.448L23.384 26.888L31.544 0.728027H43.352V1.20803H41.336C40.888 1.20803 40.472 1.28803 40.088 1.44803C39.704 1.57603 39.4 1.86403 39.176 2.31203C38.984 2.72803 38.888 3.40003 38.888 4.32803V31.4C38.888 32.296 38.984 32.968 39.176 33.416C39.4 33.864 39.704 34.168 40.088 34.328C40.472 34.456 40.888 34.52 41.336 34.52H43.352V35H27.992V34.52H28.472C29.144 34.52 29.704 34.456 30.152 34.328C30.6 34.2 30.936 33.944 31.16 33.56C31.384 33.176 31.496 32.6 31.496 31.832V2.50403L21.32 35H19.016L6.77599 2.74403V31.4C6.77599 32.296 6.90399 32.968 7.15999 33.416C7.44799 33.864 7.86399 34.168 8.40799 34.328C8.95199 34.456 9.592 34.52 10.328 34.52H12.248V35H0.343994Z" fill="url(#paint0_linear_36_3)"/>
<path d="M46.0471 35V34.52H49.5511C49.9991 34.52 50.3991 34.456 50.7511 34.328C51.1351 34.2 51.4391 33.928 51.6631 33.512C51.8871 33.096 51.9991 32.472 51.9991 31.64V4.13603C51.9991 3.27203 51.8871 2.63203 51.6631 2.21603C51.4391 1.80003 51.1351 1.52803 50.7511 1.40003C50.3991 1.27203 49.9991 1.20803 49.5511 1.20803H46.0471V0.728027H59.1511L69.0871 26.888L77.2471 0.728027H89.0551V1.20803H87.0391C86.5911 1.20803 86.1751 1.28803 85.7911 1.44803C85.4071 1.57603 85.1031 1.86403 84.8791 2.31203C84.6871 2.72803 84.5911 3.40003 84.5911 4.32803V31.4C84.5911 32.296 84.6871 32.968 84.8791 33.416C85.1031 33.864 85.4071 34.168 85.7911 34.328C86.1751 34.456 86.5911 34.52 87.0391 34.52H89.0551V35H73.6951V34.52H74.1751C74.8471 34.52 75.4071 34.456 75.8551 34.328C76.3031 34.2 76.6391 33.944 76.8631 33.56C77.0871 33.176 77.1991 32.6 77.1991 31.832V2.50403L67.0231 35H64.7191L52.4791 2.74403V31.4C52.4791 32.296 52.6071 32.968 52.8631 33.416C53.1511 33.864 53.5671 34.168 54.1111 34.328C54.6551 34.456 55.2951 34.52 56.0311 34.52H57.9511V35H46.0471Z" fill="url(#paint1_linear_36_3)"/>
<defs>
<linearGradient id="paint0_linear_36_3" x1="44.6996" y1="0.728027" x2="44.6996" y2="35" gradientUnits="userSpaceOnUse">
<stop stop-color="#A973D3"/>
<stop offset="1" stop-color="#531683"/>
</linearGradient>
<linearGradient id="paint1_linear_36_3" x1="44.6996" y1="0.728027" x2="44.6996" y2="35" gradientUnits="userSpaceOnUse">
<stop stop-color="#A973D3"/>
<stop offset="1" stop-color="#531683"/>
</linearGradient>
</defs>
</svg>
